<svg width="19" height="20" viewBox="0 0 19 20" fill="none" xmlns="http://www.w3.org/2000/svg">
<path d="M2.87511 10C2.87511 10.297 2.90211 10.594 2.93811 10.882L1.35011 12.124C0.998114 12.4 0.902114 12.893 1.12611 13.28L2.53811 15.723C2.76111 16.11 3.23511 16.273 3.65011 16.107L5.07211 15.536C5.35311 15.423 5.66611 15.468 5.91811 15.635C6.13811 15.781 6.36611 15.915 6.60211 16.035C6.87211 16.172 7.06811 16.417 7.11111 16.717L7.32811 18.23C7.39111 18.672 7.77011 19 8.21611 19H11.0331C11.4791 19 11.8581 18.672 11.9211 18.23L12.1381 16.718C12.1811 16.418 12.3791 16.171 12.6501 16.035C12.8851 15.917 13.1121 15.784 13.3311 15.639C13.5851 15.471 13.8991 15.423 14.1811 15.537L15.6001 16.107C16.0141 16.273 16.4881 16.11 16.7121 15.723L18.1241 13.28C18.3481 12.893 18.2521 12.399 17.9001 12.124L16.3121 10.882C16.3481 10.594 16.3751 10.297 16.3751 10C16.3751 9.703 16.3481 9.406 16.3121 9.118L17.9001 7.876C18.2521 7.6 18.3481 7.107 18.1241 6.72L16.7121 4.277C16.4891 3.89 16.0151 3.727 15.6001 3.893L14.1811 4.463C13.8991 4.576 13.5851 4.529 13.3311 4.361C13.1121 4.216 12.8851 4.083 12.6501 3.965C12.3791 3.829 12.1811 3.582 12.1381 3.282L11.9221 1.77C11.8591 1.328 11.4801 1 11.0341 1H8.21711C7.77111 1 7.39211 1.328 7.32911 1.77L7.11111 3.284C7.06811 3.583 6.87111 3.829 6.60211 3.966C6.36611 4.086 6.13811 4.221 5.91811 4.366C5.66511 4.532 5.35211 4.577 5.07111 4.464L3.65011 3.893C3.23511 3.727 2.76111 3.89 2.53811 4.277L1.12611 6.72C0.902114 7.107 0.998114 7.601 1.35011 7.876L2.93811 9.118C2.90211 9.406 2.87511 9.703 2.87511 10V10Z" stroke="#5B6975" stroke-width="1.5" stroke-linecap="round" stroke-linejoin="round"/>
</svg>
